<?xml version="1.0" standalone="no"?>
<!DOCTYPE svg PUBLIC "-//W3C//DTD SVG 20010904//EN"
 "http://www.w3.org/TR/2001/REC-SVG-20010904/DTD/svg10.dtd">
<svg version="1.0" xmlns="http://www.w3.org/2000/svg"
 width="716.000000pt" height="716.000000pt" viewBox="0 0 716.000000 716.000000"
 preserveAspectRatio="xMidYMid meet">
<metadata>
Created by potrace 1.14, written by Peter Selinger 2001-2017
</metadata>
<g transform="translate(0.000000,716.000000) scale(0.100000,-0.100000)"
fill="#000000" stroke="none">
<path d="M3214 7039 c-12 -6 -39 -49 -64 -102 -24 -51 -81 -168 -126 -262
-107 -222 -156 -327 -271 -575 -52 -113 -108 -232 -123 -265 -38 -81 -75 -162
-190 -415 -54 -118 -109 -240 -123 -270 -14 -30 -93 -206 -177 -390 -83 -184
-167 -368 -186 -409 -53 -113 -84 -189 -84 -206 0 -28 55 -75 88 -75 37 0 53
18 95 110 19 41 55 119 81 173 25 54 46 100 46 102 0 2 22 50 49 107 27 56 63
133 80 171 69 148 98 213 203 437 22 47 62 132 88 190 26 58 69 149 94 203 25
55 46 101 46 103 0 2 21 47 46 101 25 54 73 159 106 233 33 74 71 160 85 190
14 30 51 114 83 185 32 72 72 160 89 197 17 37 42 94 56 127 14 33 37 87 52
118 40 89 61 153 56 174 -6 22 -49 59 -67 58 -6 0 -20 -5 -32 -10z"/>
<path d="M5937 6498 c-8 -4 -66 -67 -128 -140 -255 -299 -404 -473 -409 -478
-3 -3 -48 -54 -99 -115 -52 -60 -115 -133 -140 -160 -65 -71 -203 -225 -221
-245 -8 -9 -58 -63 -110 -119 -52 -57 -98 -111 -102 -122 -19 -49 45 -118 97
-105 12 3 73 60 136 127 63 67 130 139 149 159 19 21 71 77 115 125 44 49 85
93 90 99 6 6 55 63 110 126 55 63 102 117 105 120 9 9 104 124 145 175 22 28
45 55 51 62 35 37 303 402 309 421 5 17 0 29 -24 51 -31 29 -49 34 -74 19z"/>
<path d="M4690 5918 c-30 -3 -325 -5 -655 -4 -430 2 -615 -1 -652 -9 -101 -23
-141 -65 -261 -270 -29 -49 -57 -97 -62 -105 -153 -257 -458 -829 -466 -875
-2 -14 -24 -56 -47 -93 -101 -157 -398 -672 -507 -877 -29 -55 -56 -104 -60
-110 -5 -5 -79 -149 -165 -319 -171 -336 -174 -346 -119 -394 28 -25 79 -29
109 -9 11 8 79 44 150 82 72 37 182 96 245 130 63 34 156 83 205 110 50 26
117 62 150 80 171 92 275 144 275 137 0 -4 -10 -18 -23 -32 -99 -108 -645
-816 -823 -1066 -373 -527 -631 -918 -914 -1387 -90 -150 -99 -181 -61 -221
28 -29 61 -39 94 -27 35 14 3466 3440 3474 3470 10 39 -23 89 -64 97 -33 6
-537 -3 -633 -11 -25 -2 -88 -6 -140 -9 -52 -3 -138 -8 -190 -12 -54 -4 -91
-3 -87 2 5 5 112 115 237 244 125 129 263 272 307 317 225 235 516 535 748
771 143 145 265 273 271 284 15 27 6 68 -20 96 -20 23 -26 23 -141 20 -66 -2
-145 -6 -175 -10z m35 -180 c2 -2 -13 -19 -32 -38 -22 -22 -33 -28 -29 -17 3
10 6 30 6 43 0 21 4 24 26 20 15 -3 28 -6 29 -8z m-306 -13 c-6 -6 -89 -33
-89 -29 0 7 51 30 71 31 12 1 20 0 18 -2z m-630 -59 c-2 -2 -62 -28 -134 -59
-71 -30 -183 -80 -249 -111 -65 -31 -121 -56 -124 -56 -12 0 88 69 148 103 76
42 170 79 273 106 72 20 94 24 86 17z m290 -190 c-5 -6 -168 -87 -489 -244
-323 -159 -540 -279 -689 -384 -30 -21 -56 -37 -57 -35 -2 2 12 33 32 70 37
69 61 92 83 77 15 -9 66 3 87 21 8 6 20 23 27 37 21 44 370 211 797 383 178
72 222 87 209 75z m241 -30 c-14 -13 -38 -26 -55 -30 -25 -5 -21 -1 20 23 62
36 65 37 35 7z m-1118 -166 c29 0 -21 -43 -75 -63 -16 -6 -16 -5 -1 26 9 17
24 43 32 56 l16 24 10 -22 c5 -11 13 -21 18 -21z m468 -231 c-8 -5 -80 -49
-160 -96 -80 -47 -157 -93 -172 -102 -118 -70 -603 -381 -647 -415 -18 -13
-17 -12 45 89 36 59 52 75 101 101 32 17 75 41 95 52 38 22 91 51 253 138 91
49 448 227 475 237 23 8 27 7 10 -4z m-370 -382 c0 -2 -63 -48 -141 -103 -247
-175 -486 -360 -644 -499 -44 -39 -86 -74 -92 -79 -11 -6 29 67 106 197 17 26
30 37 47 37 15 0 122 64 272 163 388 257 452 297 452 284z m197 -180 l-121
-123 -22 25 -21 25 25 20 c27 22 254 176 259 176 1 0 -53 -55 -120 -123z
m-337 -482 c13 -16 26 -7 -243 -168 -160 -96 -221 -129 -176 -94 9 7 56 48
105 93 49 45 132 119 184 166 l94 85 12 -33 c6 -19 17 -41 24 -49z m1130 52
c0 -1 -83 -85 -183 -185 -161 -161 -183 -180 -179 -153 2 18 -2 41 -11 55 -15
23 -14 24 30 57 52 37 223 206 223 220 0 5 27 9 60 9 33 0 60 -1 60 -3z m-486
-26 c-5 -5 -88 -54 -184 -111 -96 -56 -191 -112 -210 -125 -46 -29 -88 -50
-75 -38 6 6 62 44 125 86 125 82 145 104 135 147 -7 32 0 35 105 39 36 1 66 4
67 5 1 1 12 2 24 3 12 1 18 -2 13 -6z m-1465 -223 c-44 -41 -51 -42 -28 -4 14
25 25 34 32 27 6 -6 5 -14 -4 -23z m1479 -223 c-52 -50 -82 -73 -92 -69 -25
10 -19 18 32 52 26 17 65 44 87 61 22 17 42 30 45 31 3 0 -30 -34 -72 -75z
m-1479 -18 c-31 -29 -86 -79 -123 -111 -74 -67 -82 -91 -40 -132 19 -20 31
-24 52 -19 15 4 125 63 245 132 149 86 222 122 229 115 7 -7 3 -14 -13 -22
-60 -32 -200 -106 -254 -135 -33 -18 -96 -52 -140 -75 -214 -113 -253 -134
-293 -157 l-43 -25 21 44 c11 24 25 50 30 59 4 9 27 53 50 97 41 81 42 82 158
161 64 44 128 89 142 101 47 37 35 20 -21 -33z m958 -494 l-168 -166 -22 20
c-12 11 -28 22 -36 25 -8 2 54 52 140 113 85 59 174 123 199 141 25 19 47 33
50 34 3 0 -71 -75 -163 -167z m-419 52 c-2 -1 -14 -8 -28 -15 -25 -13 -25 -13
-6 8 10 12 23 19 28 16 5 -3 8 -7 6 -9z m-196 -664 c-15 -15 -29 -26 -31 -25
-6 5 40 54 50 54 5 0 -4 -13 -19 -29z m-402 -394 c0 -1 -160 -162 -356 -357
l-355 -355 79 120 c99 151 233 282 510 501 116 92 122 96 122 91z"/>
<path d="M6182 5542 c-341 -206 -1065 -670 -1089 -698 -13 -14 -23 -33 -23
-43 0 -26 45 -71 72 -71 19 0 358 209 688 424 36 23 155 100 265 171 249 161
275 180 275 209 0 33 -36 75 -62 73 -12 -1 -69 -30 -126 -65z"/>
<path d="M5705 4198 c-113 -12 -362 -64 -388 -81 -17 -11 -45 -66 -91 -174
-37 -87 -76 -176 -85 -198 -10 -22 -73 -175 -141 -340 -67 -165 -128 -313
-135 -330 -17 -40 -141 -365 -167 -435 -11 -30 -23 -62 -27 -70 -9 -18 -169
-507 -210 -645 -80 -266 -106 -354 -156 -525 -79 -275 -106 -372 -111 -404 -9
-48 5 -95 33 -113 28 -19 25 -19 462 -28 156 -3 287 -7 290 -8 3 0 25 2 48 6
58 10 64 25 128 289 29 120 55 221 58 225 5 4 267 59 367 76 8 2 92 18 187 37
95 19 174 32 177 30 2 -3 7 -45 10 -95 6 -93 13 -174 21 -260 3 -27 7 -84 10
-125 8 -118 15 -146 41 -171 l25 -24 392 0 c216 -1 404 3 419 8 35 11 60 52
60 96 -1 20 -17 124 -37 231 -19 107 -38 209 -41 225 -2 17 -9 57 -15 90 -6
33 -13 71 -15 85 -3 14 -9 48 -14 75 -12 65 -19 102 -26 145 -3 19 -14 82 -25
140 -11 58 -24 130 -29 160 -5 30 -21 116 -34 190 -14 74 -27 151 -30 170 -3
19 -17 98 -31 175 -14 77 -30 167 -36 200 -66 398 -195 921 -262 1065 -75 162
-190 273 -312 300 -61 14 -216 18 -310 8z m-305 -193 c0 -8 -4 -15 -10 -15 -5
0 -10 7 -10 15 0 8 5 15 10 15 6 0 10 -7 10 -15z m590 -126 c0 -11 -4 -17 -10
-14 -5 3 -10 13 -10 21 0 8 5 14 10 14 6 0 10 -9 10 -21z m-30 -74 c0 -8 -4
-15 -9 -15 -5 0 -11 7 -15 15 -3 9 0 15 9 15 8 0 15 -7 15 -15z m68 -17 c-3
-7 -14 -14 -26 -16 -16 -3 -20 1 -16 12 7 19 48 22 42 4z m-628 -14 c0 -8 -4
-12 -10 -9 -5 3 -10 10 -10 16 0 5 5 9 10 9 6 0 10 -7 10 -16z m729 -66 c1 -5
-17 -8 -39 -8 -22 0 -40 3 -40 8 1 30 60 48 72 22 4 -8 7 -18 7 -22z m-25
-106 c2 -4 2 -13 -2 -19 -8 -13 -52 1 -52 17 0 12 46 14 54 2z m-335 -76 c-2
-2 -13 -6 -23 -8 -24 -4 -33 19 -9 24 18 4 41 -7 32 -16z m401 -91 c0 -9 -7
-18 -16 -22 -18 -7 -39 11 -30 26 11 17 46 13 46 -4z m-1088 -201 c5 -43 -8
-54 -23 -20 -9 20 -9 29 1 41 17 20 17 20 22 -21z m358 -34 c0 -5 -7 -7 -15
-4 -8 4 -15 8 -15 10 0 2 7 4 15 4 8 0 15 -4 15 -10z m-347 -121 c-3 -10 -9
-16 -14 -13 -11 6 -12 38 -2 47 10 11 21 -13 16 -34z m567 -9 c0 -34 -26 -54
-53 -39 -36 20 -11 68 36 69 12 0 17 -8 17 -30z m534 22 c3 -5 -1 -9 -9 -9 -8
0 -12 4 -9 9 3 4 7 8 9 8 2 0 6 -4 9 -8z m21 -72 c3 -5 -1 -10 -9 -10 -9 0
-16 5 -16 10 0 6 4 10 9 10 6 0 13 -4 16 -10z m-497 -82 c6 -29 14 -64 16 -78
3 -14 10 -50 16 -80 6 -30 13 -70 16 -89 3 -18 8 -43 10 -55 3 -11 7 -41 10
-66 2 -25 6 -56 9 -70 2 -14 7 -52 11 -85 3 -33 10 -82 14 -110 5 -28 4 -54
-1 -59 -5 -6 -87 -12 -184 -14 l-174 -4 19 59 c10 32 33 105 50 163 18 58 36
116 40 130 13 40 72 234 75 245 9 43 50 165 55 165 4 0 12 -24 18 -52z m-112
16 c-4 -9 -9 -15 -11 -12 -3 3 -3 13 1 22 4 9 9 15 11 12 3 -3 3 -13 -1 -22z
m-60 -122 c-9 -17 -25 -55 -37 -86 -11 -31 -29 -62 -38 -69 -12 -7 -21 -29
-24 -57 -7 -69 -73 -247 -117 -315 -10 -16 -28 -60 -39 -96 -22 -70 -41 -95
-65 -86 -18 7 -15 29 17 98 13 30 27 70 31 89 3 19 24 64 46 100 22 36 53 109
69 163 17 53 41 116 55 140 13 23 30 61 37 85 13 46 56 89 72 73 5 -5 2 -21
-7 -39z m579 -62 c3 -5 -1 -10 -9 -10 -8 0 -18 5 -21 10 -3 6 1 10 9 10 8 0
18 -4 21 -10z m90 -48 c-3 -3 -11 0 -18 7 -9 10 -8 11 6 5 10 -3 15 -9 12 -12z
m-285 -198 c0 -2 -7 -4 -15 -4 -8 0 -15 4 -15 10 0 5 7 7 15 4 8 -4 15 -8 15
-10z m145 -16 c33 -15 35 -56 3 -53 -15 1 -22 8 -22 19 1 9 -4 16 -12 16 -8 0
-11 6 -8 15 7 18 7 18 39 3z m180 2 c3 -5 -1 -10 -10 -10 -9 0 -13 5 -10 10 3
6 8 10 10 10 2 0 7 -4 10 -10z m-65 -10 c0 -5 -4 -10 -10 -10 -5 0 -10 5 -10
10 0 6 5 10 10 10 6 0 10 -4 10 -10z m110 -40 c12 -8 12 -10 -2 -15 -24 -9
-61 -2 -66 13 -4 14 45 17 68 2z m-147 -71 c-4 -4 -18 -6 -31 -2 -18 4 -20 8
-11 19 8 10 16 11 31 3 12 -6 16 -15 11 -20z m177 0 c0 -13 -38 -49 -51 -49
-18 0 1 -19 36 -36 19 -9 33 -20 30 -24 -4 -7 -83 -7 -88 1 -22 37 -37 69 -37
77 0 18 60 49 86 44 13 -2 24 -8 24 -13z m-397 4 c-7 -2 -19 -2 -25 0 -7 3 -2
5 12 5 14 0 19 -2 13 -5z m-768 -31 c-2 -9 -4 -23 -4 -29 -1 -7 -5 -13 -11
-13 -11 0 -14 53 -4 63 11 11 22 -2 19 -21z m945 -8 c0 -9 -7 -14 -17 -12 -25
5 -28 28 -4 28 12 0 21 -6 21 -16z m70 -26 c0 -7 -4 -19 -9 -26 -6 -10 -10 -7
-13 12 -4 18 -1 26 8 26 8 0 14 -6 14 -12z m-67 -17 c5 -1 5 -6 2 -11 -9 -14
-87 -8 -92 7 -3 9 8 11 39 8 24 -2 47 -4 51 -4z m-43 -111 c0 -5 -9 -10 -21
-10 -11 0 -17 5 -14 10 3 6 13 10 21 10 8 0 14 -4 14 -10z m136 -73 c0 -1 4
-14 8 -29 6 -25 4 -28 -19 -28 -19 0 -25 5 -25 22 0 12 -10 33 -22 46 l-23 24
39 -16 c22 -9 41 -18 42 -19z m59 15 c-3 -3 -11 0 -18 7 -9 10 -8 11 6 5 10
-3 15 -9 12 -12z m-175 -92 c0 -5 -4 -10 -10 -10 -5 0 -10 5 -10 10 0 6 5 10
10 10 6 0 10 -4 10 -10z m27 -126 c9 -24 -21 -48 -51 -40 l-27 7 28 24 c33 29
42 30 50 9z m21 -163 c3 -8 -1 -12 -9 -9 -7 2 -15 10 -17 17 -3 8 1 12 9 9 7
-2 15 -10 17 -17z m245 -41 c17 0 -2 -14 -24 -17 -26 -4 -59 14 -59 32 0 7 12
18 28 23 24 8 28 6 35 -14 5 -13 14 -24 20 -24z m-1125 8 c-5 -13 -58 -20 -58
-8 0 13 13 20 38 20 14 0 22 -5 20 -12z m-160 -34 c21 -6 59 -60 49 -70 -3 -3
-24 -6 -47 -7 -34 -1 -46 4 -61 22 -18 22 -18 25 -3 42 18 20 27 22 62 13z
m992 -20 c0 -2 -15 -4 -32 -4 -23 0 -29 3 -19 9 12 8 51 4 51 -5z m365 -4 c18
0 47 -29 39 -41 -3 -5 -9 -7 -14 -4 -20 12 -50 -16 -50 -45 0 -35 17 -39 50
-10 13 11 27 20 31 20 14 0 20 -38 9 -57 -9 -14 -7 -28 8 -62 15 -32 18 -51
11 -73 -6 -23 -4 -32 11 -45 15 -13 16 -20 8 -39 -9 -19 -8 -28 4 -41 9 -10
18 -34 21 -53 4 -19 9 -51 12 -70 22 -124 22 -132 8 -137 -18 -7 -51 25 -55
52 -2 11 -11 31 -21 45 -9 13 -17 33 -17 44 0 10 -10 27 -22 38 -17 14 -23 31
-24 61 l-1 42 -46 -3 c-41 -3 -47 -1 -47 15 0 12 -13 26 -35 36 -40 19 -46 47
-18 86 14 21 15 25 1 35 -19 14 -7 55 17 57 28 3 33 4 41 12 5 4 3 12 -4 16
-7 4 -15 18 -17 31 -2 13 -9 26 -15 30 -6 4 -8 14 -5 23 8 18 74 48 93 42 8
-3 20 -5 27 -5z m-1493 -152 c-7 -7 -12 -8 -12 -2 0 14 12 26 19 19 2 -3 -1
-11 -7 -17z m1300 -50 c-12 -12 -35 -1 -27 12 3 5 13 6 21 3 10 -4 12 -9 6
-15z m-1405 -13 c8 -21 -1 -28 -26 -20 -12 4 -18 12 -14 21 7 19 32 18 40 -1z
m1213 5 c0 -5 -9 -10 -20 -10 -11 0 -20 5 -20 10 0 6 9 10 20 10 11 0 20 -4
20 -10z m75 -40 c3 -5 -1 -10 -10 -10 -9 0 -13 5 -10 10 3 6 8 10 10 10 2 0 7
-4 10 -10z m-1281 -6 c21 -8 20 -33 -1 -41 -10 -3 -26 -13 -36 -21 -16 -14
-20 -14 -40 6 -21 22 -21 22 -1 22 11 0 29 9 40 19 23 24 19 22 38 15z m1249
-44 c7 0 4 -5 -6 -11 -18 -11 -37 -5 -37 13 0 5 7 7 16 4 9 -3 21 -6 27 -6z
m-1083 -105 c0 -13 -4 -14 -20 -5 -11 6 -20 13 -20 15 0 3 9 5 20 5 11 0 20
-7 20 -15z m-235 -35 c-3 -5 -13 -10 -21 -10 -8 0 -12 5 -9 10 3 6 13 10 21
10 8 0 12 -4 9 -10z m95 -5 c0 -8 -6 -15 -14 -15 -17 0 -28 14 -19 24 12 12
33 6 33 -9z m1287 -11 c2 -5 -6 -10 -17 -10 -20 0 -25 7 -13 20 9 8 26 3 30
-10z m52 -206 c13 -34 -5 -46 -29 -18 -25 29 -25 40 0 40 12 0 24 -9 29 -22z"/>
<path d="M4224 3437 c-291 -293 -612 -619 -714 -723 -358 -369 -933 -962 -998
-1032 -24 -26 -142 -148 -262 -272 -314 -325 -321 -333 -331 -359 -13 -31 19
-93 53 -105 39 -14 74 0 120 47 53 54 575 590 653 672 32 33 187 193 345 355
278 286 462 476 569 590 29 30 130 136 224 234 95 98 190 198 212 221 44 46
291 307 350 370 113 121 286 306 329 350 87 90 99 129 52 167 -51 42 -40 51
-602 -515z"/>
<path d="M981 2251 c-16 -14 -68 -179 -96 -306 -2 -5 -25 -100 -53 -210 -66
-258 -64 -249 -41 -280 23 -28 73 -34 101 -12 13 9 56 150 73 236 4 19 34 143
81 336 46 188 47 192 29 219 -20 30 -69 39 -94 17z"/>
<path d="M265 1640 c-20 -22 -21 -46 -5 -115 6 -27 13 -59 16 -70 2 -11 17
-78 34 -150 17 -71 33 -145 37 -163 10 -58 67 -83 112 -48 32 25 30 52 -24
272 -57 234 -69 274 -88 286 -22 14 -64 8 -82 -12z"/>
<path d="M3220 1298 c-30 -12 -165 -61 -300 -109 -525 -190 -750 -275 -770
-291 -29 -25 -34 -61 -15 -102 30 -64 31 -64 355 55 74 28 169 63 210 79 41
16 111 42 155 59 461 175 504 196 505 248 0 29 -20 73 -34 73 -6 0 -20 2 -31
4 -11 2 -45 -5 -75 -16z"/>
</g>
</svg>
